<svg width="32" height="32" viewBox="0 0 32 32" xmlns="http://www.w3.org/2000/svg">
  <!-- Background -->
  <circle cx="16" cy="16" r="15" fill="#3B82F6"/>
  
  <!-- Village Houses (simplified) -->
  <g transform="translate(4, 8)">
    <rect x="0" y="8" width="6" height="5" fill="#FED7AA"/>
    <polygon points="0,8 3,5 6,8" fill="#DC2626"/>
    
    <rect x="8" y="6" width="7" height="7" fill="#FED7AA"/>
    <polygon points="8,6 11.5,2 15,6" fill="#DC2626"/>
    
    <rect x="17" y="9" width="5" height="4" fill="#FED7AA"/>
    <polygon points="17,9 19.5,6 22,9" fill="#DC2626"/>
  </g>
  
  <!-- Mobile Phone -->
  <g transform="translate(10, 16)">
    <rect x="0" y="0" width="12" height="18" rx="2" fill="#1F2937"/>
    <rect x="1" y="2" width="10" height="14" fill="#10B981" rx="1"/>
    <text x="6" y="10" text-anchor="middle" fill="#FFFFFF" font-family="Arial" font-size="6" font-weight="bold">₵</text>
    <circle cx="6" cy="16" r="1" fill="#6B7280"/>
  </g>
  
  <!-- Connection lines -->
  <g stroke="#34D399" stroke-width="1" fill="none" opacity="0.8">
    <path d="M 7 13 Q 12 14 14 18"/>
    <path d="M 11.5 10 Q 14 12 15 16"/>
    <path d="M 19.5 15 Q 18 16 17 18"/>
  </g>
</svg>
